<svg width="500" height="500" viewBox="0 0 500 500" fill="none" xmlns="http://www.w3.org/2000/svg">
<rect width="500" height="500" rx="70" fill="url(#paint0_linear_99_639)"/>
<g clip-path="url(#clip0_99_639)">
<path d="M400.562 335.25C400.562 340.936 398.304 346.388 394.284 350.409C390.263 354.429 384.811 356.688 379.125 356.688H121.875C116.189 356.688 110.737 354.429 106.716 350.409C102.696 346.388 100.438 340.936 100.438 335.25V206.625C100.438 200.939 102.696 195.487 106.716 191.466C110.737 187.446 116.189 185.188 121.875 185.188H147C164.048 185.178 180.394 178.4 192.447 166.344L210.24 148.594C214.249 144.584 219.684 142.325 225.354 142.312H275.603C281.288 142.314 286.74 144.573 290.76 148.594L308.51 166.344C314.483 172.319 321.575 177.058 329.38 180.292C337.186 183.525 345.552 185.189 354 185.188H379.125C384.811 185.188 390.263 187.446 394.284 191.466C398.304 195.487 400.562 200.939 400.562 206.625V335.25ZM121.875 163.75C110.504 163.75 99.5984 168.267 91.5578 176.308C83.5172 184.348 79 195.254 79 206.625L79 335.25C79 346.621 83.5172 357.527 91.5578 365.567C99.5984 373.608 110.504 378.125 121.875 378.125H379.125C390.496 378.125 401.402 373.608 409.442 365.567C417.483 357.527 422 346.621 422 335.25V206.625C422 195.254 417.483 184.348 409.442 176.308C401.402 168.267 390.496 163.75 379.125 163.75H354C342.63 163.748 331.726 159.229 323.688 151.188L305.937 133.437C297.899 125.396 286.995 120.877 275.625 120.875H225.375C214.005 120.877 203.101 125.396 195.063 133.437L177.312 151.188C169.274 159.229 158.37 163.748 147 163.75H121.875Z" fill="white"/>
<path d="M250.5 313.812C236.286 313.812 222.654 308.166 212.603 298.115C202.553 288.064 196.906 274.433 196.906 260.219C196.906 246.005 202.553 232.373 212.603 222.322C222.654 212.271 236.286 206.625 250.5 206.625C264.714 206.625 278.346 212.271 288.397 222.322C298.447 232.373 304.094 246.005 304.094 260.219C304.094 274.433 298.447 288.064 288.397 298.115C278.346 308.166 264.714 313.812 250.5 313.812ZM250.5 335.25C270.4 335.25 289.484 327.345 303.555 313.274C317.626 299.203 325.531 280.118 325.531 260.219C325.531 240.319 317.626 221.235 303.555 207.164C289.484 193.093 270.4 185.188 250.5 185.188C230.6 185.188 211.516 193.093 197.445 207.164C183.374 221.235 175.469 240.319 175.469 260.219C175.469 280.118 183.374 299.203 197.445 313.274C211.516 327.345 230.6 335.25 250.5 335.25ZM143.312 217.344C143.312 220.187 142.183 222.913 140.173 224.923C138.163 226.933 135.437 228.062 132.594 228.062C129.751 228.062 127.025 226.933 125.014 224.923C123.004 222.913 121.875 220.187 121.875 217.344C121.875 214.501 123.004 211.775 125.014 209.764C127.025 207.754 129.751 206.625 132.594 206.625C135.437 206.625 138.163 207.754 140.173 209.764C142.183 211.775 143.312 214.501 143.312 217.344Z" fill="white"/>
</g>
<defs>
<linearGradient id="paint0_linear_99_639" x1="363.391" y1="623.65" x2="137.689" y2="-124.73" gradientUnits="userSpaceOnUse">
<stop stop-color="#BD1E1E"/>
<stop offset="0.890102" stop-color="#18206F"/>
</linearGradient>
<clipPath id="clip0_99_639">
<rect width="343" height="343" fill="white" transform="translate(79 78)"/>
</clipPath>
</defs>
</svg>
