<svg width="500" height="500" viewBox="0 0 500 500" fill="none" xmlns="http://www.w3.org/2000/svg">
<rect width="500" height="500" rx="150" fill="url(#paint0_linear_99_639)"/>
<path d="M145.875 182.667C136.626 182.667 127.755 186.214 121.215 192.527C114.674 198.841 111 207.404 111 216.333V317.333C111 326.262 114.674 334.826 121.215 341.139C127.755 347.453 136.626 351 145.875 351H355.125C364.374 351 373.245 347.453 379.785 341.139C386.326 334.826 390 326.262 390 317.333V216.333C390 207.404 386.326 198.841 379.785 192.527C373.245 186.214 364.374 182.667 355.125 182.667H334.688C325.44 182.665 316.57 179.116 310.032 172.802L295.593 158.864C289.055 152.55 280.185 149.002 270.937 149H230.063C220.815 149.002 211.945 152.55 205.407 158.864L190.968 172.802C184.43 179.116 175.56 182.665 166.312 182.667H145.875ZM154.594 216.333C152.281 216.333 150.064 215.447 148.429 213.868C146.794 212.29 145.875 210.149 145.875 207.917C145.875 205.684 146.794 203.544 148.429 201.965C150.064 200.387 152.281 199.5 154.594 199.5C156.906 199.5 159.124 200.387 160.759 201.965C162.394 203.544 163.313 205.684 163.313 207.917C163.313 210.149 162.394 212.29 160.759 213.868C159.124 215.447 156.906 216.333 154.594 216.333ZM311.531 258.417C311.531 274.042 305.101 289.028 293.656 300.077C282.21 311.126 266.686 317.333 250.5 317.333C234.314 317.333 218.79 311.126 207.344 300.077C195.899 289.028 189.469 274.042 189.469 258.417C189.469 242.791 195.899 227.805 207.344 216.756C218.79 205.707 234.314 199.5 250.5 199.5C266.686 199.5 282.21 205.707 293.656 216.756C305.101 227.805 311.531 242.791 311.531 258.417Z" fill="#FFFDFD"/>
<defs>
<linearGradient id="paint0_linear_99_639" x1="363.391" y1="623.65" x2="137.689" y2="-124.73" gradientUnits="userSpaceOnUse">
<stop stop-color="#BD1E1E"/>
<stop offset="0.890102" stop-color="#18206F"/>
</linearGradient>
</defs>
</svg>
